<?xml version="1.0" encoding="UTF-8" standalone="no"?>
<!DOCTYPE svg PUBLIC "-//W3C//DTD SVG 1.0//EN"
"http://www.w3.org/TR/SVG/DTD/svg10.dtd">
<svg xmlns="http://www.w3.org/2000/svg" width="100%" height="100%" viewBox="60 170 280 270">
    <g>
        <polygon points="75.097,180.085 316.839,320.260 117.665,425.305 75.097,180.085 " fill="#007138" stroke="none"/>
        <polygon points="165.516,383.502 169.830,383.597 173.928,383.502 178.134,383.407 182.232,383.312 186.223,383.122 190.213,382.836 194.096,382.551 197.870,382.171 201.537,381.695 205.096,381.220 208.655,380.744 211.998,380.173 215.342,379.508 218.469,378.842 221.489,378.081 224.401,377.320 227.205,376.559 229.793,375.703 232.274,374.847 234.647,373.896 236.804,372.945 238.853,371.899 240.794,370.852 242.412,369.806 243.922,368.760 245.324,367.619 246.402,366.477 247.373,365.241 248.128,364.100 248.667,362.863 249.098,361.532 249.206,360.295 249.098,359.059 248.883,357.727 248.343,356.491 247.588,355.254 246.726,354.018 245.647,352.877 244.353,351.640 242.843,350.499 241.225,349.358 239.392,348.311 237.451,347.170 235.294,346.124 233.029,345.173 230.548,344.222 227.960,343.270 225.264,342.319 222.352,341.463 219.332,340.607 216.205,339.846 212.969,339.086 209.626,338.325 206.175,337.754 202.508,337.088 198.841,336.518 195.066,336.042 191.292,335.566 187.301,335.186 183.311,334.806 179.213,334.520 175.114,334.330 171.016,334.140 166.702,334.045 162.388,334.045 158.182,334.045 153.976,334.140 149.878,334.235 145.887,334.425 141.897,334.710 138.014,334.996 134.240,335.376 130.467,335.852 126.906,336.327 123.347,336.803 120.004,337.469 116.768,338.039 113.533,338.705 110.513,339.466 107.601,340.227 104.797,341.083 102.209,341.939 99.728,342.795 97.356,343.746 95.199,344.697 93.150,345.743 91.208,346.694 89.591,347.836 88.081,348.882 86.679,350.023 85.600,351.165 84.630,352.401 83.875,353.542 83.335,354.779 82.904,356.110 82.796,357.347 82.904,358.583 83.120,359.915 83.659,361.150 84.414,362.388 85.277,363.624 86.355,364.765 87.649,365.907 89.159,367.047 90.777,368.189 92.610,369.331 94.552,370.377 96.709,371.423 98.975,372.469 101.454,373.420 104.042,374.372 106.846,375.228 109.650,376.084 112.670,376.938 115.798,377.700 119.035,378.461 122.484,379.127 125.937,379.793 129.494,380.459 133.161,380.933 136.936,381.505 140.819,381.980 144.701,382.361 148.799,382.741 152.899,383.027 156.996,383.217 161.202,383.407 165.516,383.502 165.516,383.502 " fill="#FF6A38" stroke="none"/>
        <polygon points="165.516,369.331 170.693,369.331 175.654,369.331 180.507,369.140 185.145,368.760 189.567,368.380 193.773,367.809 197.655,367.238 201.322,366.572 204.559,365.716 207.578,364.860 210.058,363.909 212.215,362.958 213.941,361.912 215.235,360.771 215.990,359.629 216.313,358.393 216.098,357.155 215.343,356.015 214.156,354.779 212.431,353.637 210.382,352.591 207.793,351.545 204.989,350.594 201.646,349.643 198.087,348.882 194.204,348.121 189.998,347.455 185.684,346.790 180.939,346.314 176.193,345.934 171.232,345.743 166.056,345.553 160.879,345.553 155.810,345.648 150.849,345.838 146.213,346.124 141.789,346.599 137.583,347.075 133.593,347.741 130.034,348.406 126.691,349.261 123.780,350.118 121.190,351.070 119.035,352.021 117.308,353.067 116.013,354.208 115.258,355.349 114.935,356.586 115.151,357.822 115.906,358.964 117.093,360.200 118.818,361.246 120.867,362.388 123.455,363.339 126.367,364.385 129.602,365.241 133.161,366.097 137.046,366.858 141.250,367.524 145.672,368.094 150.417,368.570 155.271,368.950 160.340,369.140 165.516,369.331 165.516,369.331 " fill="#C76300" stroke="none"/>
        <polygon points="231.735,307.604 231.627,308.460 231.550,308.935 242.323,313.183 242.630,312.169 243.168,309.411 243.208,308.504 231.735,307.474 231.735,307.604 231.735,307.604 " fill="#000" stroke="none"/>
        <polygon points="231.550,308.935 231.519,309.126 231.413,309.506 231.413,309.696 230.333,312.645 229.039,315.213 227.529,317.210 225.911,318.922 224.293,320.253 222.568,321.300 220.842,322.061 219.224,322.536 217.607,322.917 216.097,323.012 214.695,323.107 213.510,323.012 212.430,322.917 211.675,322.821 211.245,322.631 211.028,322.631 211.998,319.207 212.861,315.783 213.616,312.454 214.263,309.411 214.803,306.748 215.126,304.655 215.342,303.324 215.450,302.848 218.901,301.707 221.921,301.136 224.401,300.851 226.450,300.946 228.068,301.231 229.362,301.897 230.333,302.658 230.980,303.609 231.413,304.560 231.627,305.606 231.735,306.653 231.735,307.474 243.206,308.504 243.275,306.938 243.275,304.750 243.167,302.943 242.951,301.612 242.735,300.661 242.629,300.375 241.333,297.617 239.608,295.525 237.559,293.908 235.402,292.862 233.352,292.006 231.627,291.530 230.441,291.340 230.009,291.245 228.284,291.055 226.450,290.959 224.832,291.055 223.323,291.245 222.028,291.435 220.950,291.625 220.303,291.720 220.087,291.815 220.303,286.679 219.871,284.016 219.224,282.970 218.901,282.780 216.636,281.829 214.155,280.973 211.567,280.307 208.871,279.641 206.175,279.071 203.371,278.595 200.674,278.215 197.978,277.834 195.499,277.644 193.234,277.454 191.077,277.264 189.242,277.168 188.595,277.128 190.213,277.264 192.370,277.549 194.527,277.929 196.576,278.405 198.517,278.880 200.351,279.356 202.186,279.927 203.694,280.402 205.204,280.973 206.390,281.353 207.469,281.829 208.332,282.209 208.980,282.495 209.410,282.590 209.518,282.685 211.783,283.731 212.969,284.682 213.185,285.443 212.861,286.109 212.106,286.584 211.351,286.965 210.704,287.155 210.381,287.250 207.361,287.916 204.233,288.487 201.214,289.057 198.086,289.438 194.958,289.913 191.831,290.294 188.705,290.579 185.576,290.769 182.556,291.055 179.536,291.245 176.516,291.340 173.604,291.435 170.802,291.530 167.996,291.530 165.192,291.530 162.604,291.530 160.016,291.435 157.535,291.435 155.270,291.340 153.005,291.245 150.956,291.150 149.015,291.055 147.182,290.959 145.564,290.864 144.054,290.769 142.760,290.674 141.575,290.579 140.603,290.484 139.848,290.389 139.310,290.294 138.985,290.294 138.877,290.294 136.181,290.103 133.377,289.723 130.681,289.438 127.877,288.962 125.181,288.582 122.484,288.106 120.004,287.631 117.631,287.155 115.366,286.679 113.317,286.204 111.484,285.823 109.974,285.538 108.680,285.158 107.709,284.967 107.170,284.872 106.954,284.777 107.601,284.111 108.680,283.446 109.974,282.780 111.484,282.209 112.886,281.734 114.180,281.353 115.043,281.068 115.366,280.973 102.856,284.016 103.612,297.998 105.661,310.172 108.680,320.634 112.564,329.478 117.200,336.898 122.269,342.985 127.661,347.836 133.269,351.640 138.877,354.493 144.270,356.491 149.339,357.822 153.868,358.678 157.643,359.059 160.555,359.249 162.496,359.152 163.143,359.152 163.575,359.152 170.261,359.059 176.301,358.393 181.801,357.347 186.654,355.825 191.077,354.018 194.851,352.020 198.194,349.738 201.106,347.455 203.478,345.172 205.528,342.890 207.145,340.797 208.439,338.895 209.410,337.278 210.057,335.947 210.381,335.186 210.489,334.900 217.499,333.379 223.430,331.381 228.499,329.099 232.598,326.531 235.833,323.773 238.421,320.919 240.364,317.971 241.765,315.022 242.322,313.183 231.550,308.935 231.550,308.935 " fill="#000" stroke="none"/>
        <polygon points="228.068,301.232 229.362,301.897 229.943,302.352 236.371,298.488 235.618,297.617 233.569,296.286 231.917,295.519 227.967,301.214 228.068,301.232 228.068,301.232 " fill="#DC461E" stroke="none"/>
        <polygon points="237.343,299.615 236.369,298.488 229.942,302.352 230.333,302.658 230.980,303.609 231.413,304.560 231.627,305.607 231.735,306.653 231.735,307.604 231.627,308.460 231.519,309.126 231.413,309.506 231.413,309.696 230.333,312.645 229.039,315.213 227.529,317.210 225.911,318.922 224.293,320.254 222.568,321.300 220.842,322.061 219.224,322.536 217.607,322.917 216.097,323.012 214.695,323.107 213.510,323.012 212.430,322.917 211.675,322.822 211.245,322.631 211.028,322.631 211.998,319.207 212.861,315.783 213.616,312.454 214.263,309.411 214.803,306.748 215.126,304.655 215.342,303.324 215.450,302.848 218.901,301.707 221.921,301.136 224.401,300.851 226.450,300.946 227.967,301.214 231.917,295.519 231.519,295.335 229.793,294.859 228.499,294.669 228.068,294.574 227.744,294.574 226.774,294.574 225.264,294.669 223.430,294.859 221.273,295.239 218.901,295.715 216.528,296.476 214.155,297.522 214.263,296.571 214.587,294.383 214.803,291.815 214.963,290.114 209.302,291.245 203.586,292.196 197.978,293.052 192.586,293.718 187.193,294.193 182.018,294.574 176.948,294.859 172.095,295.144 167.241,295.239 162.604,295.239 158.074,295.144 153.652,294.954 149.446,294.764 145.456,294.479 141.575,294.193 137.799,293.813 134.348,293.432 131.004,293.052 127.877,292.576 124.857,292.101 122.161,291.530 119.680,291.055 117.308,290.579 115.258,290.104 113.317,289.723 111.699,289.343 110.299,288.962 109.111,288.582 108.248,288.392 107.601,288.201 107.170,288.011 107.062,288.011 107.062,288.392 107.062,289.628 107.062,291.530 107.278,293.908 107.493,296.951 107.926,300.471 108.464,304.370 109.327,308.555 110.405,313.025 111.807,317.590 113.533,322.156 115.690,326.721 118.170,331.286 121.082,335.566 124.533,339.656 128.524,343.365 128.632,343.460 129.063,343.841 129.818,344.412 130.897,345.172 132.191,346.028 133.808,347.075 135.750,348.026 137.907,349.072 140.387,350.118 143.191,351.069 146.319,351.925 149.662,352.686 153.329,353.256 157.321,353.637 161.633,353.732 166.163,353.542 166.486,353.542 167.241,353.542 168.537,353.447 170.153,353.256 172.202,352.972 174.467,352.496 177.163,351.735 180.075,350.784 183.203,349.548 186.440,348.026 189.782,346.124 193.125,343.746 196.576,340.988 199.921,337.754 203.155,333.949 206.283,329.669 206.606,329.669 207.685,329.765 209.194,329.765 211.245,329.765 213.616,329.574 216.312,329.194 219.224,328.623 222.244,327.862 225.156,326.721 228.068,325.199 230.872,323.202 233.352,320.824 235.509,317.971 237.127,314.452 238.313,310.362 238.853,305.607 238.529,302.183 237.343,299.615 237.343,299.615 " fill="#F14C0D" stroke="none"/>
        <polygon points="105.661,284.872 105.877,284.777 106.523,284.397 107.493,283.921 109.003,283.255 110.837,282.495 113.209,281.639 115.906,280.687 119.143,279.831 122.916,278.880 127.014,278.024 131.652,277.264 136.828,276.598 142.437,276.122 148.584,275.742 155.271,275.647 162.389,275.742 162.820,275.742 164.222,275.742 166.381,275.837 169.291,275.932 172.635,276.027 176.409,276.217 180.723,276.503 185.145,276.883 189.783,277.359 194.420,277.929 199.058,278.595 203.479,279.451 207.578,280.497 211.246,281.639 214.480,282.875 217.069,284.397 217.069,284.492 216.853,284.777 216.529,285.158 215.882,285.633 214.912,286.299 213.617,286.965 211.676,287.630 209.303,288.391 206.284,289.152 202.617,289.913 198.195,290.579 192.910,291.245 186.655,291.815 179.537,292.196 171.340,292.576 162.065,292.671 161.634,292.671 160.340,292.671 158.291,292.576 155.594,292.481 152.359,292.386 148.584,292.196 144.486,291.910 140.064,291.530 135.534,291.150 130.789,290.579 126.151,290.008 121.515,289.247 116.986,288.391 112.886,287.345 109.003,286.204 105.661,284.872 105.661,284.872 " fill="#6E6B60" stroke="none"/>
        <polygon points="115.043,284.777 115.366,284.872 116.337,284.967 117.847,285.253 119.896,285.538 122.377,285.919 125.288,286.299 128.524,286.679 132.083,287.155 135.858,287.535 139.740,288.011 143.731,288.296 147.829,288.582 151.927,288.867 155.918,288.962 159.800,289.057 163.467,288.962 163.791,288.962 164.761,288.962 166.273,288.962 168.320,288.962 170.693,288.867 173.282,288.867 176.301,288.772 179.429,288.677 182.772,288.487 186.008,288.296 189.351,288.106 192.479,287.821 195.500,287.440 198.303,287.060 200.675,286.584 202.724,286.014 202.940,285.919 203.587,285.824 204.342,285.538 205.097,285.158 205.421,284.682 205.313,284.112 204.342,283.446 202.509,282.780 202.295,282.685 201.862,282.590 200.999,282.304 199.922,281.924 198.410,281.544 196.685,281.068 194.528,280.592 192.263,280.022 189.567,279.546 186.549,279.071 183.312,278.690 179.862,278.310 176.086,277.929 172.095,277.739 167.781,277.644 163.252,277.644 163.036,277.644 162.281,277.644 161.095,277.644 159.586,277.644 157.751,277.644 155.486,277.739 153.006,277.834 150.202,277.929 147.290,278.120 144.162,278.310 140.819,278.595 137.475,278.880 134.024,279.261 130.573,279.736 127.122,280.307 123.780,280.973 124.210,280.973 125.288,280.878 127.122,280.688 129.495,280.497 132.407,280.307 135.642,280.117 139.093,279.927 142.868,279.736 146.643,279.546 150.527,279.451 154.300,279.356 157.859,279.451 161.202,279.546 164.222,279.736 166.703,280.022 168.752,280.497 168.320,280.497 167.134,280.497 165.193,280.497 162.712,280.402 159.694,280.497 156.133,280.497 152.251,280.592 148.153,280.688 143.840,280.878 139.310,281.163 134.889,281.544 130.467,281.924 126.151,282.495 122.161,283.160 118.386,283.921 115.043,284.777 115.043,284.777 " fill="#1E1B18" stroke="none"/>
        <polygon points="118.819,338.325 118.603,338.325 117.848,338.420 116.662,338.610 115.044,338.895 113.210,339.276 110.945,339.751 108.573,340.227 106.092,340.893 103.397,341.654 100.592,342.510 97.895,343.461 95.199,344.507 92.503,345.743 90.130,347.075 87.865,348.597 85.816,350.214 85.708,350.309 85.492,350.689 85.277,351.355 84.953,352.116 84.630,353.162 84.414,354.208 84.414,355.540 84.522,356.871 84.845,358.298 85.492,359.725 86.571,361.246 87.973,362.768 89.914,364.290 92.287,365.717 95.307,367.047 98.868,368.285 99.083,368.380 99.513,368.475 100.376,368.760 101.348,369.141 102.641,369.521 104.151,369.901 105.878,370.472 107.710,370.948 109.543,371.423 111.593,371.994 113.642,372.469 115.799,372.945 117.848,373.325 120.005,373.611 121.946,373.896 123.888,374.086 123.456,373.991 122.378,373.706 120.652,373.325 118.495,372.755 115.907,371.994 112.995,371.138 109.867,370.092 106.739,368.950 103.613,367.714 100.592,366.287 97.895,364.765 95.523,363.244 93.581,361.532 92.179,359.725 91.424,357.822 91.532,355.920 91.532,355.825 91.424,355.445 91.424,354.969 91.532,354.303 91.856,353.447 92.287,352.496 93.042,351.355 94.121,350.214 95.523,349.072 97.464,347.836 99.729,346.599 102.641,345.363 106.200,344.222 110.300,343.080 115.260,342.129 120.868,341.178 118.819,338.325 118.819,338.325 " fill="#1E1B18" stroke="none"/>
        <polygon points="205.636,339.846 205.960,339.846 206.716,340.037 208.117,340.227 209.843,340.417 211.892,340.798 214.372,341.273 216.961,341.749 219.873,342.414 222.785,343.175 225.805,343.936 228.824,344.887 231.844,345.934 234.648,347.075 237.345,348.406 239.717,349.738 241.874,351.258 242.306,351.545 243.277,352.401 244.355,353.828 245.434,355.635 245.973,357.822 245.541,360.485 243.924,363.339 240.796,366.477 240.796,366.477 240.688,366.668 240.472,366.763 240.149,367.047 239.717,367.333 239.178,367.619 238.531,368.094 237.776,368.475 236.913,368.950 235.835,369.426 234.648,369.901 233.354,370.472 231.844,371.041 230.227,371.518 228.393,372.089 226.344,372.660 224.187,373.230 221.814,373.706 219.226,374.276 216.422,374.752 213.403,375.228 210.166,375.608 206.716,376.084 203.048,376.369 199.058,376.654 194.959,376.938 190.429,377.130 185.792,377.225 180.831,377.320 175.546,377.225 170.153,377.130 164.329,376.938 164.869,376.938 166.487,376.938 169.075,376.938 172.418,376.938 176.301,376.844 180.939,376.654 186.008,376.369 191.400,375.893 197.116,375.323 202.832,374.562 208.548,373.611 214.157,372.469 219.441,371.041 224.403,369.426 228.932,367.524 232.815,365.241 233.139,364.956 234.001,364.195 234.972,362.958 236.051,361.437 236.698,359.629 236.913,357.537 236.266,355.349 234.541,353.067 234.433,352.972 234.109,352.686 233.462,352.211 232.599,351.545 231.521,350.784 230.227,349.928 228.609,349.072 226.885,348.026 224.834,347.075 222.569,346.029 219.981,345.078 217.284,344.031 214.265,343.175 211.029,342.414 207.578,341.749 203.803,341.178 205.636,339.846 205.636,339.846 " fill="#1E1B18" stroke="none"/>
        <polygon points="200.999,351.450 201.215,351.545 201.754,351.926 202.617,352.496 203.480,353.256 204.343,354.113 204.990,355.159 205.313,356.301 205.098,357.442 205.098,357.632 204.882,358.203 204.452,359.059 203.588,360.010 202.295,361.056 200.244,362.102 197.548,362.958 193.881,363.624 193.665,363.624 192.910,363.814 191.832,364.004 190.214,364.195 188.273,364.480 185.900,364.765 183.204,365.051 180.292,365.241 176.948,365.526 173.389,365.621 169.615,365.716 165.624,365.716 161.310,365.621 156.888,365.431 152.358,365.051 147.613,364.575 147.829,364.670 148.369,364.765 149.231,365.051 150.526,365.241 152.251,365.621 154.300,365.907 156.672,366.287 159.478,366.572 162.712,366.763 166.273,366.953 170.154,367.047 174.360,367.047 178.998,366.953 184.067,366.668 189.567,366.192 195.391,365.526 196.038,365.431 197.872,365.051 200.244,364.385 203.048,363.529 205.745,362.388 208.010,360.961 209.412,359.249 209.520,357.347 209.520,357.155 209.520,356.776 209.304,356.110 208.765,355.254 207.794,354.303 206.284,353.352 204.019,352.401 200.999,351.450 200.999,351.450 " fill="#1E1B18" stroke="none"/>
        <polygon points="123.240,347.836 122.701,347.931 121.408,348.121 119.358,348.502 117.094,349.072 114.829,350.023 112.778,351.165 111.161,352.782 110.299,354.684 110.299,354.969 110.299,355.635 110.514,356.776 111.161,358.013 112.349,359.534 114.396,361.056 117.201,362.578 121.191,364.004 120.975,364.004 120.436,363.909 119.573,363.814 118.387,363.624 117.094,363.339 115.583,363.053 113.965,362.578 112.349,362.102 110.729,361.532 109.219,360.866 107.819,360.105 106.523,359.249 105.444,358.203 104.689,357.155 104.258,355.920 104.150,354.589 104.150,354.493 104.258,354.303 104.366,354.113 104.582,353.733 104.905,353.256 105.444,352.782 106.091,352.211 106.954,351.640 108.034,351.070 109.327,350.499 110.837,349.928 112.671,349.453 114.829,348.882 117.201,348.502 120.005,348.121 123.240,347.836 123.240,347.836 " fill="#1E1B18" stroke="none"/>
        <polygon points="114.072,294.288 114.072,294.669 114.072,295.905 114.180,297.712 114.396,300.185 114.721,303.229 115.151,306.653 115.906,310.362 116.878,314.357 118.171,318.542 119.788,322.726 121.837,326.911 124.210,331.096 127.122,334.996 130.467,338.705 134.348,342.034 138.770,344.887 138.986,344.982 139.526,345.077 140.280,345.268 141.466,345.553 142.868,345.838 144.486,346.029 146.320,346.219 148.370,346.409 150.635,346.409 153.006,346.409 155.487,346.219 157.968,345.838 160.664,345.268 163.252,344.507 165.949,343.461 168.646,342.129 168.321,342.129 167.566,342.034 166.381,341.939 164.762,341.749 162.929,341.558 160.772,341.367 158.507,341.083 156.134,340.797 153.761,340.512 151.389,340.132 149.232,339.751 147.075,339.369 145.349,338.895 143.841,338.420 142.653,337.944 142.006,337.469 142.221,337.469 142.868,337.372 143.841,337.278 145.133,337.183 146.643,336.993 148.370,336.803 150.310,336.613 152.359,336.232 154.408,335.852 156.565,335.471 158.723,334.996 160.664,334.425 162.605,333.759 164.331,333.093 165.841,332.333 167.135,331.477 166.919,331.477 166.164,331.572 164.978,331.667 163.360,331.762 161.527,331.762 159.370,331.857 156.997,331.952 154.516,331.952 152.036,331.857 149.339,331.762 146.859,331.572 144.378,331.286 142.006,330.906 139.849,330.430 138.015,329.765 136.397,329.004 136.613,329.004 137.262,329.004 138.231,329.004 139.526,328.909 141.143,328.909 142.976,328.718 145.025,328.528 147.182,328.338 149.555,328.053 151.820,327.672 154.193,327.197 156.565,326.626 158.938,325.865 161.095,325.104 163.144,324.153 164.978,323.107 164.654,323.107 163.792,323.107 162.497,323.202 160.664,323.202 158.615,323.202 156.134,323.202 153.546,323.202 150.849,323.107 148.045,323.012 145.241,322.822 142.437,322.536 139.849,322.251 137.476,321.775 135.427,321.300 133.593,320.634 132.299,319.873 132.516,319.873 133.162,319.873 134.132,319.968 135.535,319.968 137.154,319.968 139.094,319.968 141.143,319.873 143.516,319.683 145.888,319.398 148.478,319.017 151.065,318.542 153.654,317.971 156.350,317.210 158.830,316.354 161.311,315.213 163.684,313.976 163.360,313.976 162.605,314.071 161.311,314.071 159.695,314.166 157.752,314.262 155.487,314.357 153.006,314.357 150.310,314.357 147.614,314.357 144.810,314.262 142.113,314.071 139.419,313.881 136.937,313.501 134.672,313.120 132.624,312.550 130.897,311.884 131.220,311.884 131.975,311.789 133.162,311.789 134.781,311.598 136.613,311.503 138.770,311.313 141.143,311.028 143.731,310.743 146.320,310.457 148.908,310.077 151.389,309.601 153.869,309.126 156.134,308.555 158.183,307.889 160.017,307.223 161.419,306.463 160.987,306.463 159.909,306.463 158.291,306.463 156.134,306.463 153.546,306.367 150.635,306.272 147.506,306.272 144.378,306.082 141.143,305.987 138.015,305.797 134.997,305.607 132.299,305.321 130.034,304.941 128.202,304.655 126.906,304.180 126.367,303.704 126.583,303.704 127.230,303.704 128.310,303.704 129.603,303.704 131.328,303.704 133.270,303.609 135.535,303.609 137.907,303.419 140.388,303.229 143.084,303.039 145.780,302.753 148.478,302.373 151.281,301.897 153.977,301.327 156.673,300.661 159.154,299.900 158.830,299.900 157.752,299.900 156.134,299.805 153.977,299.710 151.281,299.615 148.370,299.424 145.025,299.234 141.466,298.949 137.799,298.663 134.025,298.283 130.359,297.807 126.583,297.332 123.132,296.666 119.788,296.000 116.768,295.144 114.072,294.288 114.072,294.288 " fill="#E6831F" stroke="none"/>
        <polygon points="196.684,301.041 197.008,301.041 197.871,300.946 199.165,300.851 200.783,300.566 202.616,300.280 204.559,299.995 206.499,299.519 208.441,298.949 208.333,299.329 208.225,300.471 207.793,302.183 207.362,304.465 206.716,307.223 206.068,310.267 205.097,313.596 204.126,317.115 202.940,320.634 201.646,324.153 200.244,327.482 198.734,330.716 197.008,333.569 195.174,335.947 193.234,337.944 191.077,339.276 191.507,338.420 192.478,335.947 193.772,332.142 195.282,327.197 196.469,321.395 197.331,314.927 197.547,308.079 196.684,301.041 196.684,301.041 " fill="#AB503C" stroke="none"/>
        <polygon points="92.934,370.853 93.150,370.948 93.689,371.138 94.552,371.423 95.738,371.804 97.356,372.184 99.189,372.755 101.348,373.325 103.934,373.991 106.631,374.752 109.758,375.418 112.994,376.179 116.661,376.938 120.435,377.701 124.533,378.461 128.847,379.222 133.377,379.888 138.122,380.554 142.976,381.124 148.152,381.695 153.437,382.171 158.937,382.551 164.545,382.836 170.369,383.027 176.193,383.027 182.232,382.930 188.380,382.741 194.743,382.361 201.106,381.885 207.577,381.220 214.155,380.364 220.842,379.222 227.529,377.986 227.313,378.081 226.774,378.271 225.803,378.557 224.509,379.032 222.891,379.508 220.950,380.078 218.685,380.744 216.097,381.410 213.185,382.076 210.057,382.741 206.606,383.502 202.939,384.168 199.057,384.832 194.851,385.404 190.429,385.975 185.899,386.451 181.046,386.830 176.085,387.021 171.016,387.212 165.624,387.212 160.123,387.021 154.515,386.736 148.799,386.165 142.868,385.500 136.828,384.548 130.789,383.407 124.641,381.980 118.386,380.364 112.131,378.461 105.769,376.179 99.297,373.706 92.934,370.853 92.934,370.853 " fill="#1E1B18" stroke="none"/>
        <polygon points="134.564,350.499 134.348,350.499 133.809,350.689 133.054,350.784 132.191,351.070 131.220,351.450 130.249,351.830 129.387,352.306 128.847,352.877 128.740,352.972 128.632,353.352 128.632,353.923 128.740,354.684 129.171,355.540 130.034,356.396 131.436,357.347 133.485,358.203 133.701,358.298 134.348,358.488 135.426,358.774 136.828,359.153 138.662,359.629 140.819,360.010 143.299,360.486 146.105,360.961 149.231,361.342 152.575,361.722 156.242,362.007 160.016,362.102 164.116,362.102 168.429,361.912 172.851,361.532 177.380,360.961 176.949,360.961 175.547,360.961 173.498,360.866 170.911,360.771 167.674,360.676 164.223,360.486 160.448,360.200 156.673,359.725 152.900,359.249 149.339,358.678 146.213,357.918 143.407,356.966 141.250,355.825 139.848,354.589 139.201,353.162 139.633,351.450 134.564,350.499 134.564,350.499 " fill="#1E1B18" stroke="none"/>
        <polygon points="248.452,356.206 248.668,356.586 248.991,357.537 249.315,359.059 249.423,360.866 249.099,362.958 248.021,365.145 245.971,367.429 242.843,369.521 243.490,369.426 245.000,368.950 247.050,368.190 249.099,366.953 250.717,365.241 251.472,362.863 250.825,359.915 248.452,356.206 248.452,356.206 " fill="#1E1B18" stroke="none"/>
        <polygon points="150.310,276.503 150.095,276.503 149.340,276.503 148.153,276.503 146.643,276.598 144.810,276.693 142.653,276.788 140.280,276.978 137.692,277.168 134.889,277.359 132.083,277.644 129.279,278.024 126.475,278.500 123.672,278.976 120.975,279.546 118.386,280.212 116.013,280.973 116.121,280.878 116.553,280.688 117.308,280.402 118.278,280.022 119.573,279.546 121.190,279.071 122.916,278.500 125.073,278.024 127.338,277.454 129.926,277.073 132.732,276.693 135.858,276.312 139.094,276.217 142.653,276.122 146.320,276.217 150.310,276.503 150.310,276.503 " fill="#1E1B18" stroke="none"/>
        <polygon points="187.537,277.056 187.733,277.073 188.596,277.128 187.949,277.073 187.537,277.056 187.537,277.056 " fill="#1E1B18" stroke="none"/>
        <polygon points="185.899,276.978 185.683,276.978 187.538,277.056 186.655,276.978 185.899,276.978 185.899,276.978 " fill="#1E1B18" stroke="none"/>
        <rect x="215px" y="290px" width="1px" height="1px" transform="rotate(275.521 214.963 290.114)" fill="#DC461E" stroke="none"/>
        <polygon points="229.795,309.316 229.795,309.316 228.824,312.169 227.530,314.547 226.235,316.354 224.727,317.971 223.215,319.112 221.706,320.063 220.197,320.729 218.793,321.110 217.391,321.490 215.989,321.585 214.695,321.585 213.616,321.585 212.538,321.490 212.106,321.395 211.783,321.205 211.459,321.205 210.596,324.058 210.704,324.058 211.245,324.248 212.322,324.343 213.402,324.439 214.695,324.629 216.205,324.439 217.823,324.343 219.656,323.963 221.490,323.392 223.431,322.536 225.373,321.395 227.098,319.873 228.824,318.066 230.550,315.879 231.844,313.120 233.030,310.077 233.030,310.077 229.795,309.316 229.795,309.316 " fill="#1E1B18" stroke="none"/>
        <polygon points="233.246,305.416 233.030,304.180 232.491,302.943 231.628,301.707 230.334,300.661 228.608,299.900 226.559,299.519 224.402,299.424 221.706,299.710 218.470,300.280 216.460,300.979 214.803,301.327 214.774,301.557 213.940,301.802 213.832,302.658 213.724,303.134 213.510,304.465 213.185,306.558 212.646,309.221 211.999,312.169 211.245,315.498 210.381,318.922 209.410,322.251 210.597,324.058 210.922,322.980 211.136,323.012 211.891,323.107 212.646,323.202 213.402,323.202 214.048,323.202 214.479,323.012 214.695,322.156 215.342,319.968 216.205,316.734 217.176,312.930 218.039,308.935 219.156,303.189 219.333,303.134 222.137,302.563 224.402,302.278 226.343,302.373 227.530,302.563 228.393,303.134 229.040,303.609 229.471,304.275 229.795,304.941 230.010,305.797 230.010,306.653 230.010,307.604 230.010,308.365 229.903,308.935 229.795,309.316 233.030,310.077 233.030,309.696 233.138,309.316 233.246,308.555 233.462,307.604 233.462,306.653 233.246,305.416 233.246,305.416 " fill="#1E1B18" stroke="none"/>
        <polygon points="186.115,281.163 186.440,281.163 187.518,281.258 189.027,281.448 190.861,281.639 193.018,282.019 195.175,282.590 197.440,283.256 199.381,284.112 199.381,284.112 199.273,284.207 199.058,284.397 198.626,284.587 198.087,284.777 197.332,285.063 196.361,285.348 195.067,285.633 193.449,285.919 191.400,286.204 189.027,286.394 186.223,286.680 182.988,286.870 179.213,286.965 174.899,287.060 170.153,287.060 170.369,287.060 171.016,286.965 172.095,286.870 173.281,286.775 174.899,286.680 176.624,286.489 178.566,286.299 180.615,286.109 182.664,285.919 184.713,285.633 186.655,285.443 188.488,285.158 190.106,284.872 191.508,284.587 192.479,284.302 193.235,284.016 193.126,283.921 193.018,283.731 192.587,283.446 191.939,282.970 190.970,282.590 189.782,282.114 188.165,281.639 186.115,281.163 186.115,281.163 " fill="#848172" stroke="none"/>
        <polygon points="175.546,275.551 175.332,275.171 175.007,274.220 174.791,273.269 175.332,272.413 175.438,272.318 175.654,272.223 176.085,271.937 176.732,271.747 177.597,271.557 178.566,271.462 179.862,271.557 181.479,271.747 181.263,271.747 180.616,271.842 179.754,272.128 178.782,272.413 177.703,272.888 176.840,273.554 175.977,274.505 175.546,275.551 175.546,275.551 " fill="#FCFDFE" stroke="none"/>
        <polygon points="157.104,270.320 156.996,270.225 156.565,269.940 156.133,269.464 155.594,268.894 155.164,268.228 154.947,267.467 154.947,266.706 155.486,265.945 155.594,265.850 155.810,265.660 156.241,265.375 156.888,265.089 157.859,264.804 159.046,264.614 160.556,264.519 162.390,264.519 162.066,264.614 161.311,264.804 160.340,265.184 159.154,265.755 158.075,266.516 157.212,267.562 156.888,268.799 157.104,270.320 157.104,270.320 " fill="#FCFDFE" stroke="none"/>
        <polygon points="178.673,258.432 178.889,258.527 179.321,258.812 180.076,259.192 180.939,259.668 181.802,260.334 182.449,261.095 183.096,261.856 183.312,262.712 183.312,262.807 183.312,263.092 183.204,263.568 182.988,264.138 182.557,264.709 181.802,265.375 180.723,265.945 179.321,266.421 179.536,266.231 180.076,265.755 180.723,264.994 181.262,264.043 181.586,262.807 181.370,261.475 180.507,260.048 178.673,258.432 178.673,258.432 " fill="#FCFDFE" stroke="none"/>
        <polygon points="157.104,251.298 157.321,251.298 157.751,251.489 158.398,251.679 159.153,251.964 160.016,252.344 160.664,252.820 161.311,253.391 161.635,253.961 161.744,254.342 161.744,255.198 161.419,256.244 160.340,257.195 160.448,257.100 160.556,256.720 160.664,256.149 160.556,255.388 160.340,254.532 159.694,253.581 158.614,252.440 157.104,251.298 157.104,251.298 " fill="#FCFDFE" stroke="none"/>
        <polygon points="151.496,239.409 151.173,239.695 150.634,240.551 150.201,241.597 150.309,242.833 150.417,243.024 150.742,243.499 151.496,244.070 152.467,244.450 152.144,244.165 151.496,243.309 151.173,241.787 151.496,239.409 151.496,239.409 " fill="#FCFDFE" stroke="none"/>
        <polygon points="181.155,247.684 181.047,247.779 180.723,248.160 180.399,248.730 180.183,249.396 180.075,250.252 180.183,251.108 180.615,251.964 181.587,252.915 181.371,252.440 181.047,251.298 180.831,249.586 181.155,247.684 181.155,247.684 " fill="#FCFDFE" stroke="none"/>
        <polygon points="146.214,260.334 145.998,260.429 145.349,260.809 144.486,261.285 143.516,261.951 142.437,262.902 141.575,263.948 140.927,265.089 140.711,266.421 140.711,266.896 140.927,268.133 141.683,269.655 143.084,270.891 142.868,270.891 142.329,270.701 141.575,270.320 140.711,269.845 139.956,269.084 139.310,268.038 138.877,266.611 138.877,264.899 138.877,264.709 138.985,264.328 139.310,263.663 139.956,262.902 140.819,262.141 142.113,261.380 143.841,260.809 146.214,260.334 146.214,260.334 " fill="#FCFDFE" stroke="none"/>
        <polygon points="141.897,244.545 141.897,244.736 141.789,245.211 141.683,245.877 141.789,246.733 142.005,247.494 142.544,248.255 143.407,248.825 144.809,249.206 145.025,249.206 145.565,249.301 146.427,249.396 147.506,249.491 148.585,249.681 149.771,249.967 150.743,250.157 151.497,250.442 151.281,250.442 150.743,250.347 149.879,250.347 148.908,250.252 147.722,250.252 146.535,250.252 145.457,250.252 144.594,250.347 144.270,250.347 143.515,250.252 142.544,250.062 141.466,249.586 140.711,248.921 140.387,247.874 140.711,246.448 141.897,244.545 141.897,244.545 " fill="#FCFDFE" stroke="none"/>
        <polygon points="169.830,280.307 169.614,280.022 168.967,279.451 168.104,278.405 167.349,277.169 166.810,275.742 166.702,274.315 167.241,272.889 168.537,271.557 168.645,271.462 168.967,271.177 169.614,270.796 170.477,270.321 171.556,269.845 172.959,269.465 174.683,269.084 176.733,268.799 177.164,268.799 178.350,268.609 180.076,268.323 181.910,267.753 183.851,267.087 185.469,266.041 186.549,264.804 186.979,263.187 186.979,262.997 186.763,262.521 186.441,261.665 185.792,260.714 184.822,259.668 183.527,258.622 181.586,257.576 179.213,256.625 178.998,256.529 178.350,256.339 177.489,255.959 176.733,255.293 176.085,254.437 175.978,253.296 176.301,251.869 177.489,250.157 177.489,250.347 177.380,250.823 177.489,251.584 177.811,252.440 178.458,253.581 179.645,254.722 181.586,255.864 184.174,257.005 184.606,257.100 185.577,257.481 186.979,257.956 188.489,258.812 189.999,259.858 191.293,261.095 192.156,262.617 192.264,264.424 192.264,264.709 192.048,265.375 191.616,266.326 190.754,267.372 189.567,268.514 187.734,269.465 185.361,270.130 182.127,270.321 181.694,270.321 180.723,270.226 179.213,270.226 177.380,270.226 175.546,270.321 173.713,270.606 172.418,271.082 171.448,271.842 171.340,272.128 171.124,272.794 171.016,273.840 171.124,275.171 171.879,276.503 173.067,278.025 175.438,279.356 178.782,280.498 178.566,280.498 177.811,280.498 176.840,280.402 175.546,280.402 174.144,280.402 172.742,280.307 171.232,280.307 169.830,280.307 169.830,280.307 " fill="#FCFDFE" stroke="none"/>
        <polygon points="152.143,278.785 157.212,278.595 157.322,278.405 157.644,277.739 157.859,276.883 158.075,275.742 157.859,274.505 157.322,273.079 156.134,271.747 154.300,270.415 153.977,270.130 153.114,269.464 152.143,268.513 151.388,267.277 151.064,266.040 151.712,264.804 153.437,263.758 156.781,262.997 156.996,262.997 157.751,262.807 158.830,262.616 160.232,262.236 161.744,261.856 163.468,261.380 165.193,260.714 166.811,260.048 168.321,259.288 169.508,258.336 170.478,257.385 171.017,256.339 171.017,255.103 170.478,253.771 169.184,252.440 167.243,250.918 167.027,250.823 166.273,250.442 165.086,249.872 163.468,249.301 161.418,248.635 159.046,248.065 156.457,247.494 153.545,247.113 153.222,247.113 152.251,247.018 150.957,246.828 149.662,246.448 148.370,245.782 147.613,244.831 147.397,243.499 148.045,241.787 147.721,241.977 146.858,242.453 145.888,243.119 144.917,244.070 144.378,245.021 144.378,245.972 145.240,246.923 147.397,247.779 148.045,247.874 149.662,248.065 152.143,248.445 154.947,248.921 157.751,249.491 160.340,250.252 162.389,251.013 163.468,251.964 163.683,252.249 164.008,252.915 164.438,253.866 164.654,255.103 164.331,256.434 163.360,257.766 161.418,258.907 158.399,259.858 157.751,259.953 156.026,260.239 153.545,260.714 150.849,261.475 148.045,262.521 145.780,263.853 144.270,265.470 143.840,267.467 143.840,267.562 144.054,267.943 144.378,268.513 145.025,269.179 146.105,269.940 147.505,270.701 149.447,271.462 152.035,272.127 152.359,272.223 153.114,272.698 153.977,273.269 154.839,274.125 155.271,275.171 155.164,276.217 154.192,277.454 152.143,278.785 152.143,278.785 " fill="#FCFDFE" stroke="none"/>
        <g id="sugar">
            <polygon points="168.297,369.500 172.071,376.443 236.351,357.421 168.297,369.500 168.297,369.500 " fill="#E3E300" stroke="#E3E300"/>
            <polygon points="166.771,368.155 170.546,375.098 234.825,356.076 166.771,368.155 166.771,368.155 " fill="#FAFD00" stroke="none"/>
            <polygon points="138.620,369.739 139.240,362.062 122.203,367.350 121.602,375.059 138.620,369.739 " fill="#D7D7D7" stroke="none"/>
        </g>
        <g id="lemon">
            <polygon points="121.602,375.059 122.203,367.350 99.984,357.689 99.417,365.360 121.602,375.059 " fill="#FFF" stroke="none"/>
            <polygon points="99.984,357.690 122.203,367.350 139.241,362.063 117.020,352.487 99.984,357.690 99.984,357.690 " fill="#EBEBEB" stroke="none"/>
        </g>
    </g>
</svg>
